<svg xmlns="http://www.w3.org/2000/svg" xmlns:xlink="http://www.w3.org/1999/xlink" width="2000" zoomAndPan="magnify" viewBox="0 0 1500 1499.999933" height="2000" preserveAspectRatio="xMidYMid meet" version="1.0"><path fill="#ffffff" d="M 1335.214844 364.953125 C 1303.207031 330.4375 1269.289062 297.714844 1235.488281 264.988281 C 1233.140625 262.171875 1230.519531 259.632812 1227.625 257.378906 C 1224.730469 255.125 1221.628906 253.203125 1218.324219 251.617188 C 1215.015625 250.03125 1211.578125 248.8125 1208.007812 247.96875 C 1204.4375 247.121094 1200.820312 246.664062 1197.152344 246.597656 C 1178.757812 246.597656 1164.902344 260.09375 1152.722656 272.035156 C 1098.382812 326.496094 1042.84375 379.523438 987.667969 432.910156 C 959.839844 460.855469 929.625 489.042969 916.007812 527.023438 C 893.316406 577.660156 881.375 632 862.625 683.953125 C 906.097656 650.273438 947.300781 613.609375 989.816406 578.734375 C 1020.511719 552.339844 1052.160156 527.023438 1083.808594 501.820312 C 1103.160156 486.535156 1119.640625 468.261719 1139.703125 454.050781 C 1113.546875 482.59375 1085.363281 509.464844 1060.640625 539.441406 C 1003.792969 600.234375 947.300781 661.738281 893.316406 724.917969 C 948.734375 708.4375 1005.820312 696.613281 1059.566406 674.878906 C 1097.066406 660.425781 1125.371094 631.164062 1153.675781 603.933594 C 1203.957031 556.164062 1252.925781 508.390625 1301.890625 459.421875 C 1315.460938 447.113281 1328.082031 433.898438 1339.75 419.773438 C 1340.464844 418.753906 1341.128906 417.703125 1341.75 416.625 C 1342.371094 415.550781 1342.945312 414.445312 1343.46875 413.320312 C 1343.996094 412.191406 1344.46875 411.046875 1344.898438 409.875 C 1345.324219 408.707031 1345.699219 407.523438 1346.019531 406.324219 C 1346.34375 405.121094 1346.617188 403.910156 1346.835938 402.6875 C 1347.054688 401.460938 1347.21875 400.230469 1347.332031 398.992188 C 1347.445312 397.753906 1347.5 396.511719 1347.507812 395.269531 C 1347.511719 394.027344 1347.460938 392.785156 1347.359375 391.546875 C 1347.257812 390.304688 1347.101562 389.074219 1346.890625 387.847656 C 1346.683594 386.621094 1346.421875 385.40625 1346.105469 384.203125 C 1345.792969 383 1345.425781 381.8125 1345.011719 380.640625 C 1344.59375 379.472656 1344.125 378.320312 1343.609375 377.1875 C 1343.09375 376.058594 1342.527344 374.949219 1341.914062 373.867188 C 1341.304688 372.785156 1340.644531 371.730469 1339.941406 370.707031 C 1339.238281 369.683594 1338.492188 368.6875 1337.703125 367.726562 C 1336.914062 366.765625 1336.082031 365.84375 1335.214844 364.953125 Z M 1335.214844 364.953125 " fill-opacity="1" fill-rule="nonzero"/><path fill="#ffffff" d="M 1016.691406 578.019531 C 1020.347656 573.011719 1024.457031 568.40625 1029.019531 564.207031 C 1033.582031 560.003906 1038.507812 556.289062 1043.800781 553.058594 C 1041.414062 550.429688 1039.261719 547.921875 1036.875 545.414062 C 999.371094 580.167969 958.765625 611.578125 920.429688 645.496094 C 862.214844 693.496094 806.71875 744.453125 753.941406 798.371094 L 782.007812 823.570312 C 814.375 795.503906 844.351562 764.808594 874.804688 734.710938 C 920.546875 681.089844 969.394531 630.328125 1016.691406 578.019531 Z M 1016.691406 578.019531 " fill-opacity="1" fill-rule="nonzero"/><path fill="#ffffff" d="M 446.523438 678.9375 C 497.878906 699.121094 552.339844 709.632812 605.25 725.039062 C 599.875 718.351562 594.5 711.902344 589.007812 705.570312 C 533.351562 643.945312 475.546875 584.347656 421.804688 521.167969 C 402.453125 498.957031 379.761719 478.769531 361.488281 455.125 C 419.054688 507.792969 480.921875 555.089844 540.636719 605.609375 C 555.207031 618.265625 569.898438 630.6875 584.707031 643.109375 C 599.515625 655.53125 616.835938 671.535156 634.390625 683.835938 C 621.015625 640.71875 609.308594 596.890625 592.589844 554.96875 C 578.378906 500.867188 539.441406 458.46875 499.195312 421.5625 C 457.871094 380.242188 414.875 340.589844 373.433594 299.386719 C 356.886719 282.246094 339.089844 266.523438 320.046875 252.210938 C 319.023438 251.582031 317.972656 251 316.894531 250.464844 C 315.820312 249.925781 314.726562 249.4375 313.609375 248.992188 C 312.492188 248.546875 311.355469 248.152344 310.207031 247.804688 C 309.054688 247.460938 307.890625 247.164062 306.714844 246.917969 C 305.539062 246.667969 304.351562 246.472656 303.160156 246.328125 C 301.964844 246.179688 300.769531 246.085938 299.566406 246.042969 C 298.367188 246 297.167969 246.007812 295.964844 246.066406 C 294.765625 246.125 293.570312 246.238281 292.378906 246.398438 C 291.1875 246.5625 290.003906 246.773438 288.832031 247.035156 C 287.660156 247.296875 286.5 247.609375 285.351562 247.972656 C 284.207031 248.335938 283.078125 248.746094 281.964844 249.203125 C 280.855469 249.664062 279.765625 250.167969 278.699219 250.71875 C 277.628906 251.269531 276.585938 251.867188 275.570312 252.507812 C 274.554688 253.148438 273.566406 253.832031 272.609375 254.558594 C 271.648438 255.28125 270.722656 256.046875 269.828125 256.851562 C 268.9375 257.65625 268.078125 258.5 267.257812 259.375 C 237.28125 288.277344 209.214844 319.09375 179.714844 348.832031 C 168.726562 361.609375 153.558594 374.386719 152.84375 392.78125 C 150.574219 415.351562 169.324219 430.761719 183.296875 445.210938 C 234.058594 495.730469 286.25 544.9375 337.363281 595.097656 C 370.6875 626.628906 402.8125 661.859375 446.523438 678.9375 Z M 446.523438 678.9375 " fill-opacity="1" fill-rule="nonzero"/><path fill="#ffffff" d="M 1130.386719 1155.828125 C 1122.625 1148.660156 1115.339844 1137.078125 1103.039062 1142.332031 C 1018.125 1058.730469 930.460938 977.875 845.1875 894.390625 C 808.519531 857.367188 767.316406 825.003906 731.726562 786.902344 C 680.609375 739.132812 630.089844 689.566406 576.464844 644.304688 C 543.742188 616.953125 510.660156 589.960938 478.414062 561.894531 C 475.785156 564.523438 473.039062 567.269531 470.53125 570.015625 C 511.136719 610.027344 548.757812 654.214844 587.8125 696.496094 C 665.324219 780.097656 750.359375 855.933594 831.570312 935.355469 C 912.1875 1012.867188 992.566406 1090.617188 1074.015625 1167.054688 C 1074.015625 1170.636719 1074.613281 1177.683594 1074.734375 1181.148438 C 1098.621094 1205.03125 1123.460938 1228.082031 1147.46875 1251.96875 C 1168.25 1255.195312 1178.28125 1229.15625 1190.105469 1216.140625 C 1173.503906 1192.730469 1149.976562 1175.890625 1130.386719 1155.828125 Z M 1130.386719 1155.828125 " fill-opacity="1" fill-rule="nonzero"/><path fill="#ffffff" d="M 705.929688 841.125 C 648.125 897.738281 589.246094 953.03125 531.320312 1009.523438 C 485.339844 1054.429688 436.613281 1096.113281 391.707031 1143.046875 L 378.570312 1140.421875 C 354.683594 1166.21875 324.824219 1187.117188 303.566406 1215.664062 C 315.507812 1229.875 324.109375 1253.285156 345.246094 1253.523438 C 372 1231.667969 394.574219 1205.03125 420.847656 1181.863281 L 418.9375 1170.636719 C 526.425781 1067.328125 633.914062 964.617188 741.402344 860.117188 C 731.128906 853.667969 719.785156 825.839844 705.929688 841.125 Z M 705.929688 841.125 " fill-opacity="1" fill-rule="nonzero"/><path fill="#1a3245" d="M 1335.214844 364.953125 C 1303.207031 330.4375 1269.289062 297.714844 1235.488281 264.988281 C 1233.140625 262.171875 1230.519531 259.632812 1227.625 257.378906 C 1224.730469 255.125 1221.628906 253.203125 1218.324219 251.617188 C 1215.015625 250.03125 1211.578125 248.8125 1208.007812 247.96875 C 1204.4375 247.121094 1200.820312 246.664062 1197.152344 246.597656 C 1178.757812 246.597656 1164.902344 260.09375 1152.722656 272.035156 C 1098.382812 326.496094 1042.84375 379.523438 987.667969 432.910156 C 959.839844 460.855469 929.625 489.042969 916.007812 527.023438 C 893.316406 577.660156 881.375 632 862.625 683.953125 C 906.097656 650.273438 947.300781 613.609375 989.816406 578.734375 C 1020.511719 552.339844 1052.160156 527.023438 1083.808594 501.820312 C 1103.160156 486.535156 1119.640625 468.261719 1139.703125 454.050781 C 1113.546875 482.59375 1085.363281 509.464844 1060.640625 539.441406 C 1003.792969 600.234375 947.300781 661.738281 893.316406 724.917969 C 948.734375 708.4375 1005.820312 696.613281 1059.566406 674.878906 C 1097.066406 660.425781 1125.371094 631.164062 1153.675781 603.933594 C 1203.957031 556.164062 1252.925781 508.390625 1301.890625 459.421875 C 1315.460938 447.113281 1328.082031 433.898438 1339.75 419.773438 C 1340.464844 418.753906 1341.128906 417.703125 1341.75 416.625 C 1342.371094 415.550781 1342.945312 414.445312 1343.46875 413.320312 C 1343.996094 412.191406 1344.46875 411.046875 1344.898438 409.875 C 1345.324219 408.707031 1345.699219 407.523438 1346.019531 406.324219 C 1346.34375 405.121094 1346.617188 403.910156 1346.835938 402.6875 C 1347.054688 401.460938 1347.21875 400.230469 1347.332031 398.992188 C 1347.445312 397.753906 1347.5 396.511719 1347.507812 395.269531 C 1347.511719 394.027344 1347.460938 392.785156 1347.359375 391.546875 C 1347.257812 390.304688 1347.101562 389.074219 1346.890625 387.847656 C 1346.683594 386.621094 1346.421875 385.40625 1346.105469 384.203125 C 1345.792969 383 1345.425781 381.8125 1345.011719 380.640625 C 1344.59375 379.472656 1344.125 378.320312 1343.609375 377.1875 C 1343.09375 376.058594 1342.527344 374.949219 1341.914062 373.867188 C 1341.304688 372.785156 1340.644531 371.730469 1339.941406 370.707031 C 1339.238281 369.683594 1338.492188 368.6875 1337.703125 367.726562 C 1336.914062 366.765625 1336.082031 365.84375 1335.214844 364.953125 Z M 1335.214844 364.953125 " fill-opacity="1" fill-rule="nonzero"/><path fill="#1a3245" d="M 1016.691406 578.019531 C 1020.347656 573.011719 1024.457031 568.40625 1029.019531 564.207031 C 1033.582031 560.003906 1038.507812 556.289062 1043.800781 553.058594 C 1041.414062 550.429688 1039.261719 547.921875 1036.875 545.414062 C 999.371094 580.167969 958.765625 611.578125 920.429688 645.496094 C 862.214844 693.496094 806.71875 744.453125 753.941406 798.371094 L 782.007812 823.570312 C 814.375 795.503906 844.351562 764.808594 874.804688 734.710938 C 920.546875 681.089844 969.394531 630.328125 1016.691406 578.019531 Z M 1016.691406 578.019531 " fill-opacity="1" fill-rule="nonzero"/><path fill="#1a3245" d="M 446.523438 678.9375 C 497.878906 699.121094 552.339844 709.632812 605.25 725.039062 C 599.875 718.351562 594.5 711.902344 589.007812 705.570312 C 533.351562 643.945312 475.546875 584.347656 421.804688 521.167969 C 402.453125 498.957031 379.761719 478.769531 361.488281 455.125 C 419.054688 507.792969 480.921875 555.089844 540.636719 605.609375 C 555.207031 618.265625 569.898438 630.6875 584.707031 643.109375 C 599.515625 655.53125 616.835938 671.535156 634.390625 683.835938 C 621.015625 640.71875 609.308594 596.890625 592.589844 554.96875 C 578.378906 500.867188 539.441406 458.46875 499.195312 421.5625 C 457.871094 380.242188 414.875 340.589844 373.433594 299.386719 C 356.886719 282.246094 339.089844 266.523438 320.046875 252.210938 C 319.023438 251.582031 317.972656 251 316.894531 250.464844 C 315.820312 249.925781 314.726562 249.4375 313.609375 248.992188 C 312.492188 248.546875 311.355469 248.152344 310.207031 247.804688 C 309.054688 247.460938 307.890625 247.164062 306.714844 246.917969 C 305.539062 246.667969 304.351562 246.472656 303.160156 246.328125 C 301.964844 246.179688 300.769531 246.085938 299.566406 246.042969 C 298.367188 246 297.167969 246.007812 295.964844 246.066406 C 294.765625 246.125 293.570312 246.238281 292.378906 246.398438 C 291.1875 246.5625 290.003906 246.773438 288.832031 247.035156 C 287.660156 247.296875 286.5 247.609375 285.351562 247.972656 C 284.207031 248.335938 283.078125 248.746094 281.964844 249.203125 C 280.855469 249.664062 279.765625 250.167969 278.699219 250.71875 C 277.628906 251.269531 276.585938 251.867188 275.570312 252.507812 C 274.554688 253.148438 273.566406 253.832031 272.609375 254.558594 C 271.648438 255.28125 270.722656 256.046875 269.828125 256.851562 C 268.9375 257.65625 268.078125 258.5 267.257812 259.375 C 237.28125 288.277344 209.214844 319.09375 179.714844 348.832031 C 168.726562 361.609375 153.558594 374.386719 152.84375 392.78125 C 150.574219 415.351562 169.324219 430.761719 183.296875 445.210938 C 234.058594 495.730469 286.25 544.9375 337.363281 595.097656 C 370.6875 626.628906 402.8125 661.859375 446.523438 678.9375 Z M 446.523438 678.9375 " fill-opacity="1" fill-rule="nonzero"/><path fill="#1a3245" d="M 1130.386719 1155.828125 C 1122.625 1148.660156 1115.339844 1137.078125 1103.039062 1142.332031 C 1018.125 1058.730469 930.460938 977.875 845.1875 894.390625 C 808.519531 857.367188 767.316406 825.003906 731.726562 786.902344 C 680.609375 739.132812 630.089844 689.566406 576.464844 644.304688 C 543.742188 616.953125 510.660156 589.960938 478.414062 561.894531 C 475.785156 564.523438 473.039062 567.269531 470.53125 570.015625 C 511.136719 610.027344 548.757812 654.214844 587.8125 696.496094 C 665.324219 780.097656 750.359375 855.933594 831.570312 935.355469 C 912.1875 1012.867188 992.566406 1090.617188 1074.015625 1167.054688 C 1074.015625 1170.636719 1074.613281 1177.683594 1074.734375 1181.148438 C 1098.621094 1205.03125 1123.460938 1228.082031 1147.46875 1251.96875 C 1168.25 1255.195312 1178.28125 1229.15625 1190.105469 1216.140625 C 1173.503906 1192.730469 1149.976562 1175.890625 1130.386719 1155.828125 Z M 1130.386719 1155.828125 " fill-opacity="1" fill-rule="nonzero"/><path fill="#1a3245" d="M 705.929688 841.125 C 648.125 897.738281 589.246094 953.03125 531.320312 1009.523438 C 485.339844 1054.429688 436.613281 1096.113281 391.707031 1143.046875 L 378.570312 1140.421875 C 354.683594 1166.21875 324.824219 1187.117188 303.566406 1215.664062 C 315.507812 1229.875 324.109375 1253.285156 345.246094 1253.523438 C 372 1231.667969 394.574219 1205.03125 420.847656 1181.863281 L 418.9375 1170.636719 C 526.425781 1067.328125 633.914062 964.617188 741.402344 860.117188 C 731.128906 853.667969 719.785156 825.839844 705.929688 841.125 Z M 705.929688 841.125 " fill-opacity="1" fill-rule="nonzero"/></svg>